<?xml version="1.0" standalone="no"?>
<!DOCTYPE svg PUBLIC "-//W3C//DTD SVG 20010904//EN"
 "http://www.w3.org/TR/2001/REC-SVG-20010904/DTD/svg10.dtd">
<svg version="1.0" xmlns="http://www.w3.org/2000/svg"
 width="240.000000pt" height="350.000000pt" viewBox="0 0 240.000000 350.000000"
 preserveAspectRatio="xMidYMid meet">
<metadata>
Created by potrace 1.15, written by Peter Selinger 2001-2017
</metadata>
<g transform="translate(0.000000,350.000000) scale(0.100000,-0.100000)"
fill="#000000" stroke="none">
<path d="M0 1750 l0 -1750 1200 0 1200 0 0 1750 0 1750 -1200 0 -1200 0 0
-1750z m1852 720 c41 -24 73 -70 99 -144 24 -69 51 -243 47 -301 l-3 -41 -64
74 c-70 80 -74 112 -8 67 l37 -25 -6 28 c-35 147 -78 260 -124 330 -26 37 -23
39 22 12z m-718 -61 c15 -17 33 -44 42 -60 l14 -29 65 45 c58 41 105 57 105
37 0 -4 -7 -18 -16 -31 -16 -22 -16 -23 4 -12 59 32 155 31 235 0 47 -19 30
-29 -53 -29 -87 0 -121 -10 -207 -63 -56 -33 -74 -58 -23 -32 16 8 51 17 77
20 47 5 47 4 13 -6 -52 -16 -120 -48 -120 -56 0 -18 -53 -64 -67 -59 -8 3 -25
-2 -39 -10 -23 -16 -26 -15 -45 2 -19 17 -19 19 -2 25 12 5 13 8 4 8 -8 1 -44
19 -80 40 -67 40 -153 61 -166 41 -3 -5 -35 -10 -71 -10 -41 0 -63 4 -59 10 3
6 3 10 -2 10 -4 0 -13 11 -19 25 -11 23 -10 25 25 35 20 5 54 10 76 10 l40 1
-31 13 c-62 27 -52 59 15 49 35 -5 122 -27 158 -40 17 -6 17 -5 1 14 -10 11
-18 25 -18 31 0 25 34 10 78 -33 25 -25 47 -43 50 -41 2 3 -8 30 -22 62 -32
69 -34 89 -7 75 10 -6 31 -25 45 -42z m-704 -54 c0 -3 -13 -29 -30 -58 -36
-65 -37 -76 -5 -69 34 6 32 -7 -10 -72 -19 -30 -35 -57 -35 -60 0 -3 15 4 34
15 50 29 54 7 8 -43 -22 -24 -49 -61 -60 -83 l-21 -40 -1 41 c0 23 5 88 10
144 16 151 47 230 92 230 10 0 18 -2 18 -5z m1419 -265 c45 -23 125 -100 146
-141 8 -15 31 -92 50 -171 66 -270 44 -391 -109 -592 -85 -111 -106 -153 -106
-216 0 -58 18 -99 56 -129 23 -18 24 -21 7 -21 -24 0 -61 34 -74 67 -5 13 -9
42 -9 63 0 43 37 183 71 267 34 84 85 115 61 36 -16 -53 -7 -52 27 1 29 47 44
97 56 189 5 36 10 47 21 43 9 -3 14 1 14 12 0 24 -28 142 -42 175 -13 32 -5
45 17 27 10 -8 15 -9 15 -1 0 23 -39 111 -72 162 -19 30 -40 68 -47 85 -7 17
-39 57 -72 90 -77 76 -79 90 -10 54z m-1030 -37 c14 -11 27 -31 29 -45 2 -20
-5 -30 -34 -47 -38 -22 -42 -41 -5 -21 12 6 21 7 21 1 0 -5 -8 -12 -17 -15
-13 -5 -14 -9 -5 -15 9 -5 -6 -28 -52 -77 -35 -38 -67 -66 -71 -62 -10 9 37
82 74 115 l26 24 -42 -20 c-23 -12 -44 -17 -47 -12 -6 9 28 43 62 61 37 18 21
21 -38 5 -65 -17 -79 -11 -49 21 l23 24 -46 -6 c-58 -8 -73 10 -26 31 l33 14
-37 1 c-21 0 -38 4 -38 9 0 42 187 52 239 14z m839 -54 c74 -36 72 -57 -3 -34
-27 8 -51 13 -52 11 -2 -2 13 -13 33 -25 84 -50 -19 -27 -143 31 -93 44 -83
61 32 53 51 -4 87 -14 133 -36z m-1301 -76 c-28 -56 -61 -152 -54 -159 2 -2
15 11 28 30 13 19 36 42 52 51 27 16 28 16 18 -2 -41 -75 -74 -161 -88 -230
-16 -77 -16 -87 1 -192 9 -62 26 -137 36 -169 l20 -57 -25 30 c-72 87 -115
214 -115 335 1 110 55 313 99 369 44 55 57 52 28 -6z m7 -435 c3 -13 12 -59
21 -103 20 -95 35 -118 35 -55 0 51 14 80 29 65 7 -7 8 -42 4 -93 -4 -51 -9
-78 -14 -70 -7 10 -9 10 -9 -2 0 -9 16 -48 35 -88 40 -85 29 -85 -25 -1 -68
106 -122 281 -105 346 7 29 23 30 29 1z m1452 -207 c-8 -46 -27 -101 -42 -128
-25 -42 -25 -46 -6 -29 l21 18 -10 -33 c-6 -19 -13 -42 -16 -52 -10 -32 -28
-11 -26 29 l3 39 -19 -45 c-48 -119 -72 -162 -90 -167 -10 -3 -22 -14 -24 -25
-10 -38 -32 -13 -29 33 3 52 66 268 90 313 l17 31 3 -31 c2 -18 -4 -60 -13
-94 -9 -34 -14 -64 -12 -66 2 -3 26 49 54 113 27 65 54 117 60 116 6 -1 14 10
18 25 8 33 28 59 33 43 2 -5 -3 -46 -12 -90z m-936 -7 c0 -8 4 -14 9 -14 5 0
24 -37 41 -82 36 -94 58 -139 105 -218 18 -30 36 -65 40 -77 5 -19 3 -22 -12
-16 -20 8 -23 13 45 -90 14 -20 23 -40 20 -42 -6 -6 -54 41 -75 73 -9 12 -25
22 -37 22 -12 0 -28 6 -36 13 -13 11 5 -21 37 -68 17 -26 17 -45 -2 -45 -36 0
-126 161 -156 278 -30 117 -23 308 11 287 5 -3 10 -13 10 -21z m526 -33 c40
-59 85 -188 91 -262 6 -67 5 -68 -22 -81 -25 -11 -29 -10 -42 7 -136 187 -205
307 -186 326 8 8 19 1 42 -31 33 -45 38 -47 20 -6 -7 14 -9 32 -5 42 6 15 10
14 38 -12 24 -23 29 -25 23 -9 -27 70 -1 87 41 26z m-306 -21 c0 -16 7 -30 15
-34 9 -3 27 -32 41 -63 14 -32 55 -102 91 -156 35 -54 63 -101 60 -103 -3 -3
-22 10 -43 28 l-39 33 43 -48 c24 -27 41 -51 38 -54 -14 -14 -61 13 -139 81
-65 58 -91 89 -112 132 -28 59 -44 158 -30 191 6 16 9 14 21 -12 13 -30 13
-30 14 -4 0 27 18 51 32 43 4 -3 8 -18 8 -34z m-394 -198 c34 -70 91 -168 128
-219 36 -51 66 -97 66 -103 0 -22 -25 -8 -77 43 -29 30 -53 53 -53 52 0 -1 7
-22 15 -45 17 -49 21 -135 5 -110 -5 8 -22 47 -36 85 -15 39 -40 101 -56 138
-16 37 -27 76 -24 85 3 9 -5 49 -19 87 -25 70 -32 115 -17 115 4 0 35 -58 68
-128z m1121 -206 c21 -18 68 -52 104 -75 97 -60 161 -134 184 -211 7 -23 4
-22 -31 12 -22 20 -61 49 -88 65 -64 37 -73 58 -22 50 32 -5 36 -4 25 9 -6 8
-63 46 -125 85 -63 39 -114 77 -114 85 0 24 28 16 67 -20z"/>
</g>
</svg>
